# xmcd
#
# Track frame offsets:
#	150
#	13237
#	28019
#	40949
#	52508
#	65922
#	77692
#	90452
#	100482
#	114860
#	126735
#	140056
#	153552
#	168113
#	184087
#	195616
#
# Disc length: 2812 seconds
#
# Revision: 0
# Processed by: cddbd v1.4PL0 Copyright (c) Steve Scherf et al.
# Submitted via: dBpowerAMP V4.0
#
DISCID=d80afa10
DTITLE=Annesley Malawana - Wana Bambaro
DYEAR=2001
DGENRE=Blues
TTITLE0=Wana Bambaro
TTITLE1=Sathuta Senasuma
TTITLE2=Mage Sithe Athi
TTITLE3=Aluyama
TTITLE4=Adara Duruthu Mahe
TTITLE5=Ruwan Puraya
TTITLE6=Oba Soya Aawa
TTITLE7=Sandak Nagi
TTITLE8=Nali Manamali
TTITLE9=Nil Ahase
TTITLE10=Pena Bubulai
TTITLE11=Raban Sural
TTITLE12=Goyam Kapanawa
TTITLE13=Menike Sudu Menike
TTITLE14=Kandulin Nimawu
TTITLE15=Kandulin Nimawu
EXTD=
EXTT0=
EXTT1=
EXTT2=
EXTT3=
EXTT4=
EXTT5=
EXTT6=
EXTT7=
EXTT8=
EXTT9=
EXTT10=
EXTT11=
EXTT12=
EXTT13=
EXTT14=
EXTT15=
PLAYORDER=
